<?xml version="1.0" standalone="no"?>
<!DOCTYPE svg PUBLIC "-//W3C//DTD SVG 20010904//EN"
 "http://www.w3.org/TR/2001/REC-SVG-20010904/DTD/svg10.dtd">
<svg version="1.0" xmlns="http://www.w3.org/2000/svg"
 width="681.000000pt" height="864.000000pt" viewBox="0 0 681.000000 864.000000"
 preserveAspectRatio="xMidYMid meet">

<g transform="translate(0.000000,864.000000) scale(0.100000,-0.100000)"
fill="#000000" stroke="none">
<path d="M2190 7169 c-169 -33 -316 -197 -343 -384 -23 -160 29 -308 155 -437
40 -41 90 -87 111 -102 43 -32 183 -98 245 -116 23 -7 39 -17 36 -21 -2 -4
-189 -8 -415 -9 -445 0 -438 0 -490 -57 -48 -51 -49 -57 -49 -338 0 -294 1
-297 65 -353 38 -34 56 -40 125 -44 l45 -3 5 -875 5 -875 24 -60 c33 -82 116
-164 194 -193 l58 -22 1007 0 1007 0 -50 32 c-27 17 -52 34 -55 37 -3 4 -21
19 -41 34 -34 25 -41 27 -175 29 l-139 3 -2 201 c-2 184 -4 208 -28 290 -37
123 -45 319 -20 460 9 55 22 108 29 119 7 14 13 150 16 420 l5 400 537 3 537
2 3 -62 c3 -68 0 -65 91 -82 l37 -7 0 74 0 74 69 5 c82 6 128 36 161 103 20
42 21 56 18 302 -3 251 -4 259 -27 296 -13 21 -42 50 -64 65 l-40 27 -406 5
c-223 3 -398 7 -389 8 32 4 174 69 231 106 124 79 225 198 268 316 20 54 24
84 24 181 0 113 -1 116 -38 192 -53 107 -121 178 -215 224 -73 37 -79 38 -176
37 -90 -1 -109 -5 -180 -34 -228 -96 -430 -302 -603 -615 -47 -84 -123 -245
-137 -289 -8 -25 -18 -13 -41 49 -32 87 -138 287 -209 393 -241 361 -524 540
-776 491z m159 -144 c196 -46 389 -231 568 -540 62 -107 181 -370 172 -379
-16 -15 -433 76 -596 129 -286 94 -437 208 -492 372 -26 79 -27 143 0 220 34
101 106 172 200 197 69 19 72 19 148 1z m1920 -20 c73 -37 118 -94 145 -185
66 -221 -74 -435 -357 -546 -88 -35 -284 -90 -407 -114 -150 -30 -324 -59
-329 -54 -6 6 66 168 132 299 112 220 246 397 378 497 172 130 318 165 438
103z m-1369 -1300 l0 -265 -644 0 -645 0 -20 26 c-20 25 -21 39 -21 241 0 214
0 214 25 238 l24 25 641 0 640 0 0 -265z m480 0 l0 -265 -172 2 -173 3 -3 263
-3 262 176 0 175 0 0 -265z m1436 244 c17 -19 19 -41 22 -218 4 -221 -3 -262
-46 -280 -19 -8 -204 -11 -652 -9 l-625 3 -3 263 -2 262 643 0 c642 0 644 0
663 -21z m-1923 -646 c5 -7 11 -1684 7 -1875 0 -17 -29 -18 -460 -18 -449 0
-462 1 -503 21 -56 28 -75 46 -101 94 -21 40 -21 43 -24 899 -1 473 -1 865 1
870 6 15 1072 23 1080 9z m487 -943 l0 -950 -170 0 -170 0 0 53 c0 28 -3 449
-6 934 -4 485 -4 889 -1 898 5 13 33 15 177 15 l170 0 0 -950z"/>
<path d="M4290 5056 c-288 -62 -530 -256 -641 -517 -146 -342 -80 -714 176
-987 75 -81 160 -142 269 -193 265 -124 605 -100 834 58 35 23 66 43 70 43 4
0 34 -27 66 -59 57 -58 58 -60 47 -92 -15 -44 -14 -83 4 -126 20 -47 539 -558
599 -590 81 -43 194 -26 275 43 77 64 105 207 60 297 -24 46 -462 495 -542
554 -39 28 -57 35 -100 36 -28 1 -65 -1 -82 -6 -27 -7 -36 -2 -92 53 -35 33
-63 62 -63 65 0 2 19 35 43 72 88 137 126 263 134 438 11 248 -69 467 -235
647 -105 113 -256 206 -404 249 -95 27 -322 35 -418 15z m393 -177 c168 -56
290 -147 385 -286 137 -202 162 -486 61 -710 -119 -266 -387 -443 -669 -443
-212 0 -429 104 -567 272 -199 243 -217 612 -42 872 54 80 110 138 184 191
197 140 429 178 648 104z"/>
<path d="M2095 2051 c-97 -17 -159 -87 -171 -192 l-7 -59 -43 0 -44 0 0 -55
c0 -49 2 -55 24 -61 13 -3 32 -4 42 -2 18 3 19 -9 24 -222 l5 -225 70 0 70 0
3 223 2 222 54 0 c81 0 86 4 86 66 l0 54 -70 0 -70 0 0 39 c0 62 33 93 103 99
l57 4 0 49 c0 26 -3 50 -7 52 -17 10 -90 14 -128 8z"/>
<path d="M1615 2024 c-17 -18 -25 -39 -25 -61 0 -98 147 -115 165 -19 17 89
-81 144 -140 80z"/>
<path d="M3620 2032 c-13 -10 -23 -33 -27 -57 -4 -33 -1 -45 21 -67 34 -38 87
-38 123 -2 22 22 25 32 20 67 -7 50 -36 77 -82 77 -18 0 -43 -8 -55 -18z"/>
<path d="M4946 2035 c-3 -9 -6 -74 -6 -145 l0 -129 -47 27 c-39 22 -61 27
-118 27 -95 0 -119 -8 -176 -61 -62 -59 -89 -127 -89 -228 0 -137 46 -229 139
-280 47 -25 60 -28 129 -24 68 3 83 7 125 36 38 27 48 30 52 18 3 -9 7 -23 10
-32 4 -12 17 -14 62 -12 l58 3 0 405 0 405 -66 3 c-54 2 -68 0 -73 -13z m-38
-379 l37 -34 0 -102 0 -102 -39 -35 c-37 -34 -40 -35 -102 -31 -50 3 -69 9
-90 28 -56 52 -70 148 -34 227 25 56 70 83 138 83 46 0 57 -4 90 -34z"/>
<path d="M989 2016 c-136 -55 -210 -148 -245 -304 -14 -65 -15 -88 -6 -144 27
-155 92 -252 210 -310 116 -58 267 -50 367 18 20 13 37 24 39 24 2 0 7 -16 10
-35 7 -34 8 -35 56 -35 37 0 49 4 52 16 2 10 2 106 0 216 l-3 199 -157 -3
-157 -3 -3 -54 c-2 -37 1 -57 10 -62 7 -5 48 -9 91 -9 76 0 77 0 77 -26 0 -70
-62 -136 -146 -155 -42 -10 -60 -9 -106 5 -71 20 -110 53 -142 119 -65 133
-30 325 72 392 55 36 125 49 186 34 39 -9 61 -23 97 -61 26 -26 56 -48 67 -48
32 0 112 31 112 44 0 25 -65 110 -107 140 -69 49 -126 65 -228 65 -71 0 -102
-4 -146 -23z"/>
<path d="M3022 1633 l3 -398 75 0 75 0 5 160 5 160 138 3 137 3 0 59 0 59
-137 3 -138 3 -3 107 -3 108 163 2 163 3 3 39 c2 22 1 50 -2 63 l-6 23 -240 0
-240 0 2 -397z"/>
<path d="M2355 1961 c-17 -7 -21 -20 -25 -82 l-5 -74 -41 -3 c-33 -2 -43 -8
-48 -25 -17 -63 6 -100 58 -95 l31 3 5 -180 c6 -206 13 -231 82 -266 34 -17
55 -20 119 -17 95 4 121 21 109 72 -12 52 -16 55 -73 49 -45 -4 -55 -2 -72 17
-18 20 -20 39 -23 171 -3 118 -1 149 10 150 7 1 34 1 60 -1 64 -3 88 12 88 55
0 59 -6 65 -70 65 -90 0 -90 0 -90 91 l0 79 -47 -1 c-27 0 -57 -4 -68 -8z"/>
<path d="M4137 1810 c-16 -5 -43 -20 -62 -34 -40 -31 -45 -32 -45 -8 0 29 -21
42 -65 42 -78 0 -76 10 -73 -300 l3 -275 58 -3 c35 -2 64 2 73 9 11 9 14 48
14 190 0 113 4 187 12 203 23 52 94 76 151 52 57 -23 61 -40 67 -256 l5 -195
65 0 65 0 0 227 0 226 -30 44 c-52 74 -147 105 -238 78z"/>
<path d="M5369 1802 c-82 -30 -137 -92 -163 -181 -46 -158 13 -319 138 -377
40 -19 68 -24 132 -24 72 0 88 4 144 33 35 17 73 44 84 59 l20 28 -29 30 c-40
42 -59 45 -89 15 -83 -83 -212 -68 -251 28 -28 69 -36 66 183 69 l197 3 -2 74
c-3 89 -36 167 -88 207 -70 53 -189 69 -276 36z m177 -117 c28 -18 58 -79 50
-101 -8 -20 -244 -20 -252 0 -9 25 35 96 69 112 38 17 98 12 133 -11z"/>
<path d="M6065 1801 c-22 -10 -49 -28 -59 -40 -26 -29 -36 -26 -36 8 0 25 -5
31 -31 36 -17 4 -46 4 -65 0 l-34 -6 2 -282 3 -282 65 0 65 0 5 175 c4 147 8
180 23 203 25 39 71 64 129 72 l49 7 -3 62 -3 61 -35 3 c-19 1 -53 -6 -75 -17z"/>
<path d="M1612 1798 c-14 -14 -17 -534 -3 -556 5 -9 27 -12 72 -10 l64 3 3
279 c2 217 -1 281 -10 288 -20 12 -113 9 -126 -4z"/>
<path d="M3612 1798 c-9 -9 -12 -84 -12 -274 0 -144 3 -269 6 -278 8 -20 113
-23 132 -4 17 17 17 539 0 556 -7 7 -35 12 -63 12 -28 0 -56 -5 -63 -12z"/>
</g>
</svg>
