<svg width="681" height="864" xmlns="http://www.w3.org/2000/svg" preserveAspectRatio="xMidYMid meet" version="1.0">

 <g>
  <title>Layer 1</title>
  <path stroke="null" id="svg_2" d="m215,210.88692c-16.9,3.24572 -31.6,19.37595 -34.3,37.76835c-2.3,15.73681 2.9,30.29336 15.5,42.98117c4,4.03256 9,8.55689 11.1,10.03222c4.3,3.14736 18.3,9.6388 24.5,11.40919c2.3,0.68849 3.9,1.67204 3.6,2.06546c-0.2,0.39342 -18.9,0.78684 -41.5,0.8852c-44.5,0 -43.8,0 -49,5.60624c-4.8,5.01611 -4.9,5.60624 -4.9,33.24401c0,28.91639 0.1,29.21146 6.5,34.71934c3.8,3.34407 5.6,3.9342 12.5,4.32762l4.5,0.29507l0.5,86.06069l0.5,86.06069l2.4,5.9013c3.3,8.06512 11.6,16.13023 19.4,18.98253l5.8,2.16381l100.7,0l100.7,0l-5,-3.14736c-2.7,-1.67204 -5.2,-3.34407 -5.5,-3.63914c-0.3,-0.39342 -2.1,-1.86875 -4.1,-3.34407c-3.4,-2.45888 -4.1,-2.65559 -17.5,-2.8523l-13.9,-0.29507l-0.2,-19.76937c-0.2,-18.09733 -0.4,-20.45785 -2.8,-28.52297c-3.7,-12.09767 -4.5,-31.37527 -2,-45.24333c0.9,-5.40953 2.2,-10.62235 2.9,-11.70425c0.7,-1.37697 1.3,-14.75326 1.6,-41.30913l0.5,-39.34203l53.7,-0.29507l53.7,-0.19671l0.3,6.09801c0.3,6.68814 0,6.39308 9.1,8.06512l3.7,0.68849l0,-7.27828l0,-7.27828l6.9,-0.49178c8.2,-0.59013 12.8,-3.54078 16.1,-10.13057c2,-4.13091 2.1,-5.50788 1.8,-29.70323c-0.3,-24.68712 -0.4,-25.47396 -2.7,-29.1131c-1.3,-2.06546 -4.2,-4.91775 -6.4,-6.39308l-4,-2.65559l-40.6,-0.49178c-22.3,-0.29507 -39.8,-0.68849 -38.9,-0.78684c3.2,-0.39342 17.4,-6.7865 23.1,-10.42564c12.4,-7.77005 22.5,-19.4743 26.8,-31.0802c2,-5.31117 2.4,-8.26183 2.4,-17.80227c0,-11.11412 -0.1,-11.40919 -3.8,-18.88417c-5.3,-10.52399 -12.1,-17.5072 -21.5,-22.03154c-7.3,-3.63914 -7.9,-3.73749 -17.6,-3.63914c-9,0.09836 -10.9,0.49178 -18,3.34407c-22.8,9.44209 -43,29.70323 -60.3,60.48837c-4.7,8.26183 -12.3,24.09699 -13.7,28.42462c-0.8,2.45888 -1.8,1.27862 -4.1,-4.8194c-3.2,-8.55689 -13.8,-28.22791 -20.9,-38.65354c-24.1,-35.50618 -52.4,-53.11174 -77.6,-48.29234zm15.9,14.16313c19.6,4.52433 38.9,22.72002 56.8,53.11174c6.2,10.52399 18.1,36.39138 17.2,37.27657c-1.6,1.47533 -43.3,-7.47499 -59.6,-12.6878c-28.6,-9.24538 -43.7,-20.45785 -49.2,-36.58809c-2.6,-7.77005 -2.7,-14.06478 0,-21.63812c3.4,-9.93386 10.6,-16.91707 20,-19.37595c6.9,-1.86875 7.2,-1.86875 14.8,-0.09836zm192,1.9671c7.3,3.63914 11.8,9.24538 14.5,18.19569c6.6,21.73647 -7.4,42.78446 -35.7,53.70187c-8.8,3.44243 -28.4,8.85196 -40.7,11.21248c-15,2.95065 -32.4,5.80295 -32.9,5.31117c-0.6,-0.59013 6.6,-16.52365 13.2,-29.40817c11.2,-21.63812 24.6,-39.04696 37.8,-48.88247c17.2,-12.78616 31.8,-16.22859 43.8,-10.13057zm-136.9,127.86159l0,26.06409l-64.4,0l-64.5,0l-2,-2.55723c-2,-2.45888 -2.1,-3.83585 -2.1,-23.70357c0,-21.04799 0,-21.04799 2.5,-23.40851l2.4,-2.45888l64.1,0l64,0l0,26.06409zm48,0l0,26.06409l-17.2,-0.19671l-17.3,-0.29507l-0.3,-25.86738l-0.3,-25.76903l17.6,0l17.5,0l0,26.06409zm143.6,-23.99864c1.7,1.86875 1.9,4.03256 2.2,21.44141c0.4,21.73647 -0.3,25.76903 -4.6,27.53942c-1.9,0.78684 -20.4,1.08191 -65.2,0.8852l-62.5,-0.29507l-0.3,-25.86738l-0.2,-25.76903l64.3,0c64.2,0 64.4,0 66.3,2.06546zm-192.3,63.53738c0.5,0.68849 1.1,165.62994 0.7,184.41576c0,1.67204 -2.9,1.77039 -46,1.77039c-44.9,0 -46.2,-0.09836 -50.3,-2.06546c-5.6,-2.75394 -7.5,-4.52433 -10.1,-9.24538c-2.1,-3.9342 -2.1,-4.22927 -2.4,-88.42121c-0.1,-46.52195 -0.1,-85.07714 0.1,-85.56891c0.6,-1.47533 107.2,-2.26217 108,-0.8852zm48.7,92.74883l0,93.43732l-17,0l-17,0l0,-5.21282c0,-2.75394 -0.3,-44.16143 -0.6,-91.86364c-0.4,-47.70221 -0.4,-87.43766 -0.1,-88.32285c0.5,-1.27862 3.3,-1.47533 17.7,-1.47533l17,0l0,93.43732z"/>
  <path stroke="null" id="svg_3" d="m425.00001,418.71118c-28.8,6.09801 -53,25.1789 -64.1,50.84957c-14.6,33.63743 -8,70.22552 17.6,97.07645c7.5,7.96676 16,13.96642 26.9,18.98253c26.5,12.19603 60.5,9.83551 83.4,-5.70459c3.5,-2.26217 6.6,-4.22927 7,-4.22927c0.4,0 3.4,2.65559 6.6,5.80295c5.7,5.70459 5.8,5.9013 4.7,9.04867c-1.5,4.32762 -1.4,8.16347 0.4,12.39274c2,4.62269 53.9,54.88213 59.9,58.02949c8.1,4.22927 19.4,2.55723 27.5,-4.22927c7.7,-6.29472 10.5,-20.3595 6,-29.21146c-2.4,-4.52433 -46.2,-48.68576 -54.2,-54.48871c-3.9,-2.75394 -5.7,-3.44243 -10,-3.54078c-2.8,-0.09836 -6.5,0.09836 -8.2,0.59013c-2.7,0.68849 -3.6,0.19671 -9.2,-5.21282c-3.5,-3.24572 -6.3,-6.09801 -6.3,-6.39308c0,-0.19671 1.9,-3.44243 4.3,-7.08157c8.8,-13.47464 12.6,-25.86738 13.4,-43.07952c1.1,-24.39206 -6.9,-45.93182 -23.5,-63.63573c-10.5,-11.11412 -25.6,-20.26114 -40.4,-24.49041c-9.5,-2.65559 -32.2,-3.44243 -41.8,-1.47533zm39.3,17.40885c16.8,5.50788 29,14.4582 38.5,28.12955c13.7,19.86772 16.2,47.80056 6.1,69.8321c-11.9,26.16245 -38.7,43.5713 -66.9,43.5713c-21.2,0 -42.9,-10.22893 -56.7,-26.75258c-19.9,-23.90028 -21.7,-60.1933 -4.2,-85.76562c5.4,-7.86841 11,-13.573 18.4,-18.78582c19.7,-13.76971 42.9,-17.5072 64.8,-10.22893z"/>
 </g>
</svg>